<svg
  xmlns="http://www.w3.org/2000/svg"
  xmlns:xlink="http://www.w3.org/1999/xlink"
  x="0px"
  y="0px"
  viewBox="0 0 195.7 105.4"
  style="enable-background:new 0 0 195.7 105.4;"
  xml:space="preserve"
>
  <g id="XMLID_2791_">
    <g id="XMLID_353_">
      <path
        id="XMLID_357_"
        class="jsjoe-fill-white"
        d="M140.6,90.2l14.2,14.2c0.4,0.4,1,0.4,1.4,0l23.6-23.6c0.4-0.4,0.4-1,0-1.4l-14.2-14.2
                          c-0.4-0.4-1-0.4-1.4,0l-23.6,23.6C140.2,89.2,140.2,89.8,140.6,90.2z"
      />

      <rect
        id="XMLID_356_"
        x="161.8"
        y="71.3"
        transform="matrix(-0.7071 -0.7071 0.7071 -0.7071 217.4294 267.8525)"
        class="jsjoe-fill-warning-lighter"
        width="4.8"
        height="35.2"
      />

      <rect
        id="XMLID_355_"
        x="155.8"
        y="73.6"
        transform="matrix(-0.7071 -0.7071 0.7071 -0.7071 207.6442 257.0145)"
        class="jsjoe-fill-warning-lighter"
        opacity=".8"
        width="2.4"
        height="23.8"
      />
      <path
        id="XMLID_354_"
        class="jsjoe-fill-none jsjoe-stroke-dark"
        stroke-width="1.5"
        stroke-miterlimit="10"
        d="M158.7,101.8L179.6,81c0.4-0.4,0.4-1.2,0-1.6l-14-14c-0.4-0.4-1.2-0.4-1.6,0l-5.6,5.6"
      />
    </g>
    <g id="XMLID_2801_">
      <path
        id="XMLID_352_"
        class="jsjoe-fill-warning-lighter"
        opacity=".8"
        d="M156.6,102.7v-37c0-1.1-0.9-1.9-1.9-1.9H137c-1.1,0-1.9,0.9-1.9,1.9v37
                          c0,1.1,0.9,1.9,1.9,1.9h17.7C155.7,104.6,156.6,103.8,156.6,102.7z"
      />
      <path
        id="XMLID_350_"
        class="jsjoe-fill-none jsjoe-stroke-dark"
        stroke-width="1.5"
        stroke-miterlimit="10"
        d="M154.7,104.6c1.1,0,1.9-0.9,1.9-1.9v-37c0-1.1-0.9-1.9-1.9-1.9H137c-1.1,0-1.9,0.9-1.9,1.9
                          v2.5"
      />
      <path
        id="XMLID_349_"
        class="jsjoe-fill-white"
        d="M153,84.1c-0.1-4-3.4-7.2-7.4-7.1c-4,0.1-7.2,3.4-7.1,7.4c0.1,4,3.4,7.2,7.4,7.1
                          C149.9,91.4,153.1,88.1,153,84.1z"
      />
      <path
        id="XMLID_348_"
        class="jsjoe-fill-none jsjoe-stroke-dark"
        stroke-width="1.5"
        stroke-miterlimit="10"
        d="M153,84.1c-0.1-4-3.4-7.2-7.4-7.1c-4,0.1-7.2,3.4-7.1,7.4c0.1,4,3.4,7.2,7.4,7.1
                          C149.9,91.4,153.1,88.1,153,84.1z"
      />
      <path
        id="XMLID_345_"
        class="jsjoe-fill-white"
        d="M147.5,95.5c0-1.1-0.9-1.9-2-1.9c-1.1,0-1.9,0.9-1.9,2c0,1.1,0.9,1.9,2,1.9
                          C146.7,97.5,147.5,96.6,147.5,95.5z"
      />
      <path
        id="XMLID_344_"
        class="jsjoe-fill-white"
        d="M147.5,72.5c0-1.1-0.9-1.9-2-1.9c-1.1,0-1.9,0.9-1.9,2c0,1.1,0.9,1.9,2,1.9
                          C146.7,74.4,147.5,73.5,147.5,72.5z"
      />
      <g id="XMLID_328_">
        <path
          id="XMLID_3421_"
          class="jsjoe-fill-none jsjoe-stroke-dark"
          stroke-width="1.5"
          stroke-miterlimit="10"
          d="M143,87.1v-3.6c0-0.8,0.6-1.4,1.4-1.4l0,0c0.8,0,1.4,0.6,1.4,1.4V85c0,0.8,0.6,1.4,1.4,1.4
                            l0,0c0.8,0,1.4-0.6,1.4-1.4v-3.7"
        />
        <line
          id="XMLID_3371_"
          class="jsjoe-fill-none jsjoe-stroke-dark"
          stroke-width="1.5"
          stroke-miterlimit="10"
          x1="140.7"
          y1="84.2"
          x2="150.8"
          y2="84.2"
        />
      </g>
      <path
        id="XMLID_3251_"
        class="jsjoe-fill-none jsjoe-stroke-dark"
        stroke-width="1.5"
        stroke-miterlimit="10"
        d="M153.1,74.4v-3.7c0-0.2-0.1-0.3-0.3-0.3c-1.9-0.2-3.4-1.7-3.5-3.6c0-0.2-0.2-0.3-0.3-0.3
                          c-1.2,0-5.2,0-6.4,0c-0.2,0-0.3,0.1-0.3,0.3c-0.2,1.9-1.7,3.4-3.6,3.6c-0.2,0-0.3,0.1-0.3,0.3v3.1"
      />
      <path
        id="XMLID_282q_"
        class="jsjoe-fill-none jsjoe-stroke-dark"
        stroke-width="1.5"
        stroke-miterlimit="10"
        d="M153.1,93.6v3.7c0,0.2-0.1,0.3-0.3,0.3c-1.9,0.2-3.4,1.7-3.5,3.6c0,0.2-0.2,0.3-0.3,0.3
                          c-1.2,0-5.2,0-6.4,0c-0.2,0-0.3-0.1-0.3-0.3c-0.2-1.9-1.7-3.4-3.6-3.6c-0.2,0-0.3-0.1-0.3-0.3v-3.1"
      />
    </g>
  </g>
  <g id="XMLID_74_">
    <line
      id="XMLID_76_"
      class="jsjoe-fill-none jsjoe-stroke-danger"
      stroke-width="1.5"
      stroke-linecap="round"
      stroke-miterlimit="10"
      x1="66.2"
      y1="6.1"
      x2="70.5"
      y2="6.1"
    />
    <line
      id="XMLID_75_"
      class="jsjoe-fill-none jsjoe-stroke-danger"
      stroke-width="1.5"
      stroke-linecap="round"
      stroke-miterlimit="10"
      x1="68.4"
      y1="8.2"
      x2="68.4"
      y2="3.9"
    />
  </g>
  <g id="XMLID_369_">
    <line
      id="XMLID_3751_"
      class="jsjoe-fill-none jsjoe-stroke-dark"
      stroke-width="1.5"
      stroke-linecap="round"
      stroke-miterlimit="10"
      x1="153"
      y1="44.5"
      x2="157.3"
      y2="44.5"
    />
    <line
      id="XMLID_3701_"
      class="jsjoe-fill-none jsjoe-stroke-dark"
      stroke-width="1.5"
      stroke-linecap="round"
      stroke-miterlimit="10"
      x1="155.1"
      y1="46.6"
      x2="155.1"
      y2="42.4"
    />
  </g>
  <g id="XMLID_3791_">
    <line
      id="XMLID_3811_"
      class="jsjoe-fill-none jsjoe-stroke-dark"
      stroke-width="1.5"
      stroke-linecap="round"
      stroke-miterlimit="10"
      x1="5.7"
      y1="69.3"
      x2="10"
      y2="69.3"
    />
    <line
      id="XMLID_3801_"
      class="jsjoe-fill-none jsjoe-stroke-dark"
      stroke-width="1.5"
      stroke-linecap="round"
      stroke-miterlimit="10"
      x1="7.8"
      y1="71.4"
      x2="7.8"
      y2="67.1"
    />
  </g>
  <g id="XMLID_79_">
    <line
      id="XMLID_81_"
      class="jsjoe-fill-none jsjoe-stroke-dark"
      stroke-width="1.5"
      stroke-linecap="round"
      stroke-miterlimit="10"
      x1="123.7"
      y1="16.8"
      x2="126.7"
      y2="13.8"
    />
    <line
      id="XMLID_80_"
      class="jsjoe-fill-none jsjoe-stroke-dark"
      stroke-width="1.5"
      stroke-linecap="round"
      stroke-miterlimit="10"
      x1="126.7"
      y1="16.8"
      x2="123.7"
      y2="13.8"
    />
  </g>
  <g id="XMLID_465_">
    <line
      id="XMLID_468_"
      class="jsjoe-fill-none jsjoe-stroke-dark"
      stroke-width="1.5"
      stroke-linecap="round"
      stroke-miterlimit="10"
      x1="52.8"
      y1="34.3"
      x2="55.8"
      y2="31.3"
    />
    <line
      id="XMLID_466_"
      class="jsjoe-fill-none jsjoe-stroke-dark"
      stroke-width="1.5"
      stroke-linecap="round"
      stroke-miterlimit="10"
      x1="55.8"
      y1="34.3"
      x2="52.8"
      y2="31.3"
    />
  </g>
  <g id="XMLID_3761_">
    <line
      id="XMLID_3781_"
      class="jsjoe-fill-none jsjoe-stroke-danger"
      stroke-width="1.5"
      stroke-linecap="round"
      stroke-miterlimit="10"
      x1="189"
      y1="68.7"
      x2="192"
      y2="65.6"
    />
    <line
      id="XMLID_3771_"
      class="jsjoe-fill-none jsjoe-stroke-danger"
      stroke-width="1.5"
      stroke-linecap="round"
      stroke-miterlimit="10"
      x1="192"
      y1="68.7"
      x2="189"
      y2="65.6"
    />
  </g>
  <line
    id="XMLID_305_"
    class="jsjoe-fill-none jsjoe-stroke-dark"
    stroke-width="1.5"
    stroke-miterlimit="10"
    x1="135.1"
    y1="15.5"
    x2="156.9"
    y2="15.5"
  />
  <line
    id="XMLID_4011_"
    class="jsjoe-fill-none jsjoe-stroke-dark"
    stroke-width="1.5"
    stroke-miterlimit="10"
    x1="0"
    y1="46.6"
    x2="15.4"
    y2="46.6"
  />
  <line
    id="XMLID_368_"
    class="jsjoe-fill-none jsjoe-stroke-dark"
    stroke-width="1.5"
    stroke-miterlimit="10"
    x1="75.3"
    y1="6.1"
    x2="131"
    y2="6.1"
  />
  <line
    id="XMLID_302_"
    class="jsjoe-fill-none jsjoe-stroke-dark"
    stroke-width="1.5"
    stroke-miterlimit="10"
    x1="133.1"
    y1="15.5"
    x2="129.2"
    y2="15.5"
  />
  <line
    id="XMLID_404_"
    class="jsjoe-fill-none jsjoe-stroke-dark"
    stroke-width="1.5"
    stroke-miterlimit="10"
    x1="173.9"
    y1="53.5"
    x2="195.7"
    y2="53.5"
  />
  <line
    id="XMLID_4021_"
    class="jsjoe-fill-none jsjoe-stroke-dark"
    stroke-width="1.5"
    stroke-miterlimit="10"
    x1="171.9"
    y1="53.5"
    x2="167.9"
    y2="53.5"
  />
  <path
    id="XMLID_482_"
    class="jsjoe-fill-warning"
    d="M178.3,68.5c0,0.7-0.6,1.3-1.3,1.3c-0.7,0-1.3-0.6-1.3-1.3c0-0.7,0.6-1.3,1.3-1.3
                      C177.7,67.2,178.3,67.8,178.3,68.5z"
  />
  <path
    id="XMLID_3961_"
    class="jsjoe-fill-warning"
    d="M142.1,1.3c0,0.7-0.6,1.3-1.3,1.3c-0.7,0-1.3-0.6-1.3-1.3S140,0,140.7,0
                      C141.5,0,142.1,0.6,142.1,1.3z"
  />
  <path
    id="XMLID_3831_"
    class="jsjoe-fill-warning"
    d="M171.8,26.1c0,0.7-0.6,1.3-1.3,1.3c-0.7,0-1.3-0.6-1.3-1.3s0.6-1.3,1.3-1.3
                      C171.2,24.8,171.8,25.4,171.8,26.1z"
  />
  <path
    id="XMLID_3851_"
    class="jsjoe-fill-warning"
    d="M35.8,34.3c0,0.7-0.6,1.3-1.3,1.3c-0.7,0-1.3-0.6-1.3-1.3c0-0.7,0.6-1.3,1.3-1.3
                      C35.2,33,35.8,33.6,35.8,34.3z"
  />
  <path
    id="XMLID_3821_"
    class="jsjoe-fill-warning"
    d="M153.3,54.4c0,0.5-0.4,0.9-0.9,0.9c-0.5,0-0.9-0.4-0.9-0.9c0-0.5,0.4-0.9,0.9-0.9
                      C152.9,53.5,153.3,53.9,153.3,54.4z"
  />
  <path
    id="XMLID_4001_"
    class="jsjoe-fill-warning"
    d="M15.4,33c0,0.5-0.4,0.9-0.9,0.9c-0.5,0-0.9-0.4-0.9-0.9c0-0.5,0.4-0.9,0.9-0.9
                      C15,32,15.4,32.5,15.4,33z"
  />
  <path
    id="XMLID_386_"
    class="jsjoe-fill-warning"
    d="M20,88.4c0,0.5-0.4,0.9-0.9,0.9c-0.5,0-0.9-0.4-0.9-0.9c0-0.5,0.4-0.9,0.9-0.9
                      C19.5,87.4,20,87.9,20,88.4z"
  />
  <path
    id="XMLID_384_"
    class="jsjoe-fill-warning"
    d="M96.6,16.8c0,0.5-0.4,0.9-0.9,0.9c-0.5,0-0.9-0.4-0.9-0.9s0.4-0.9,0.9-0.9
                      C96.2,15.9,96.6,16.3,96.6,16.8z"
  />
  <g id="XMLID_132_">
    <path
      id="XMLID_87_"
      class="jsjoe-fill-white"
      d="M75.8,104.6h-32c-1.1,0-1.9-0.9-1.9-1.9v-22c0-1.1,0.9-1.9,1.9-1.9h32c1.1,0,1.9,0.9,1.9,1.9
                        v22C77.7,103.8,76.8,104.6,75.8,104.6z"
    />
    <path
      id="XMLID_86_"
      class="jsjoe-fill-none jsjoe-stroke-dark"
      stroke-width="1.5"
      stroke-miterlimit="10"
      d="M52.8,104.6h-9.2c-0.9,0-1.7-0.7-1.7-1.7V86"
    />
    <path
      id="XMLID_2681_"
      class="jsjoe-fill-none jsjoe-stroke-dark"
      stroke-width="1.5"
      stroke-miterlimit="10"
      d="M77.7,103c0,0.9-0.7,1.7-1.7,1.7h-3.9"
    />
    <line
      id="XMLID_70_"
      class="jsjoe-fill-none jsjoe-stroke-dark"
      stroke-width="1.5"
      stroke-miterlimit="10"
      x1="60.2"
      y1="78.8"
      x2="71"
      y2="78.8"
    />
    <line
      id="XMLID_84_"
      class="jsjoe-fill-none jsjoe-stroke-dark"
      stroke-width="1.5"
      stroke-miterlimit="10"
      x1="44.4"
      y1="89.3"
      x2="44.4"
      y2="94.2"
    />
    <rect
      id="XMLID_82_"
      x="46.5"
      y="81.1"
      class="jsjoe-fill-warning-lighter"
      opacity=".5"
      width="26.2"
      height="21.4"
    />
    <path
      id="XMLID_73_"
      class="jsjoe-fill-none jsjoe-stroke-dark"
      stroke-width="1.5"
      stroke-miterlimit="10"
      d="M75.3,91.7c0,0.5-0.4,0.9-0.9,0.9c-0.5,0-0.9-0.4-0.9-0.9c0-0.5,0.4-0.9,0.9-0.9
                        C74.9,90.8,75.3,91.2,75.3,91.7z"
    />
    <polyline
      id="XMLID_134_"
      class="jsjoe-fill-none jsjoe-stroke-dark"
      stroke-width="1.5"
      stroke-miterlimit="10"
      points="50.7,94.1 48.4,91.7 50.7,89.4     "
    />
    <polyline
      id="XMLID_72_"
      class="jsjoe-fill-none jsjoe-stroke-dark"
      stroke-width="1.5"
      stroke-miterlimit="10"
      points="68.4,94.1 70.7,91.7 68.4,89.4    "
    />
    <rect
      id="XMLID_71_"
      x="53.5"
      y="87.4"
      class="jsjoe-fill-warning-lighter"
      width="12.6"
      height="8.7"
    />
    <rect
      id="XMLID_85_"
      x="53.5"
      y="87.4"
      class="jsjoe-fill-none jsjoe-stroke-dark"
      stroke-width="1.5"
      stroke-miterlimit="10"
      width="12.6"
      height="8.7"
    />
  </g>
  <path
    id="XMLID_358_"
    class="jsjoe-fill-warning"
    opacity=".3"
    d="M78.4,103h-0.8c0-0.1,0-0.2,0-0.2v-22c0-1.1-0.9-1.9-1.9-1.9H71v-0.8h-0.5v26.5H72v-0.5h6.2
                      C78.3,103.8,78.4,103.4,78.4,103z"
  />
  <g id="XMLID_100_">
    <path
      id="XMLID_751_"
      class="jsjoe-fill-white"
      d="M129.7,104.1V26.5c0-1.9-1.5-3.4-3.4-3.4H76.6c-1.9,0-3.4,1.5-3.4,3.4v77.6L129.7,104.1z"
    />
    <path
      id="XMLID_739_"
      class="jsjoe-fill-warning-lighter"
      opacity=".8"
      d="M73.2,31.8V26c0-1.6,1.3-2.8,2.8-2.8h50.8c1.6,0,2.8,1.3,2.8,2.8v5.9H73.2z"
    />
    <path
      id="XMLID_736_"
      class="jsjoe-fill-none jsjoe-stroke-dark"
      stroke-width="1.5"
      stroke-miterlimit="10"
      d="M73.2,104.6V26c0-1.6,1.3-2.8,2.8-2.8h50.8c1.6,0,2.8,1.3,2.8,2.8v39"
    />
    <line
      id="XMLID_735_"
      class="jsjoe-fill-none jsjoe-stroke-dark"
      stroke-width="1.5"
      stroke-miterlimit="10"
      x1="73.2"
      y1="32"
      x2="129.7"
      y2="32"
    />
    <line
      id="XMLID_734_"
      class="jsjoe-fill-none jsjoe-stroke-dark"
      stroke-width="1.5"
      stroke-miterlimit="10"
      x1="79.7"
      y1="28"
      x2="82"
      y2="28"
    />
    <line
      id="XMLID_727_"
      class="jsjoe-fill-none jsjoe-stroke-dark"
      stroke-width="1.5"
      stroke-miterlimit="10"
      x1="84.9"
      y1="28"
      x2="87.2"
      y2="28"
    />
    <line
      id="XMLID_726_"
      class="jsjoe-fill-none jsjoe-stroke-dark"
      stroke-width="1.5"
      stroke-miterlimit="10"
      x1="90.2"
      y1="28"
      x2="92.4"
      y2="28"
    />
    <rect
      id="XMLID_725_"
      x="80.8"
      y="38.5"
      class="jsjoe-fill-warning-lighter"
      opacity=".4"
      width="41.3"
      height="16.3"
    />
    <rect
      id="XMLID_99_"
      x="80.3"
      y="91.2"
      class="jsjoe-fill-warning-lighter"
      opacity=".4"
      width="41.3"
      height="11.6"
    />
    <rect
      id="XMLID_724_"
      x="80.8"
      y="67.1"
      class="jsjoe-fill-warning-lighter"
      opacity=".8"
      width="12.6"
      height="16.3"
    />
    <rect
      id="XMLID_111_"
      x="95.7"
      y="67.1"
      class="jsjoe-fill-warning-lighter"
      opacity=".8"
      width="12.6"
      height="16.3"
    />
    <rect
      id="XMLID_130_"
      x="110.5"
      y="67.1"
      class="jsjoe-fill-warning-lighter"
      opacity=".8"
      width="12.6"
      height="16.3"
    />
    <line
      id="XMLID_717_"
      class="jsjoe-fill-none jsjoe-stroke-dark"
      stroke-width="1.5"
      stroke-miterlimit="10"
      x1="92.7"
      y1="59.9"
      x2="110.2"
      y2="59.9"
    />
  </g>
  <path
    id="XMLID_359_"
    class="jsjoe-fill-warning"
    opacity=".3"
    d="M129.7,104V67.3c-0.4-0.3-0.7-0.5-1-0.8c-0.5-0.4-1.2-0.4-1.6,0c-1.1,0.9-2.9,2.4-5.4,2.7
                      l0.1,0.7h0c-0.7,0.1-1.6,0.1-2.8,0.2l0-0.7c-0.5,0-1.1,0-1.8,0v0.8h0c-1.3,0-2.6,0-3.8,0l0-0.7l-1.3,0c-0.4,0-0.7,0.1-1,0.4
                      c-0.3,0.3-0.4,0.6-0.4,0.9l0,12.6c0,4.6,2,9.1,5.4,12.2l9.6,8.7L129.7,104L129.7,104z"
  />
  <g id="XMLID_69_">
    <g id="XMLID_1066_">
      <path
        id="XMLID_1067_"
        class="jsjoe-fill-white"
        d="M129.9,104.5c-0.2,0.1-0.4,0.1-0.6,0l-10.7-9.7c-3.3-3-5.2-7.2-5.2-11.6l0-12.6
                          c0-0.3,0.3-0.6,0.6-0.6c1.5,0,3.4,0.1,5.2,0.1c2.1,0,3.7-0.1,4.6-0.2c2.6-0.3,4.5-1.8,5.8-2.8c0.2-0.2,0.5-0.2,0.7,0
                          c1.2,1,3.1,2.5,5.8,2.9c0.9,0.1,2.3,0.2,4.1,0.2c1.8,0,3.7-0.1,5.2-0.1c0.3,0,0.6,0.3,0.6,0.6l0,12.7c0,4.5-1.9,8.8-5.3,11.7
                          L129.9,104.5z"
      />
    </g>
    <g id="XMLID_1059_">
      <path
        id="XMLID_1065_"
        class="jsjoe-fill-warning-lighter"
        d="M129.9,102.3c-0.2,0.1-0.4,0.1-0.6,0l-9.5-8.5c-2.9-2.6-4.6-6.3-4.6-10.3l0-11.1
                          c0-0.3,0.2-0.5,0.5-0.5c1.3,0,3,0.1,4.6,0.1c1.9,0,3.2-0.1,4.1-0.2c2.3-0.3,4-1.6,5.1-2.5c0.2-0.1,0.4-0.1,0.6,0
                          c1.1,0.9,2.8,2.2,5.1,2.5c0.8,0.1,2,0.2,3.7,0.2c1.6,0,3.3,0,4.6-0.1c0.3,0,0.5,0.2,0.5,0.5l0,11.2c0,4-1.7,7.7-4.7,10.4
                          L129.9,102.3z"
      />
    </g>
    <g id="XMLID_1057_">
      <path
        id="XMLID_91_"
        class="jsjoe-fill-none jsjoe-stroke-dark"
        stroke-width="1.5"
        stroke-miterlimit="10"
        d="M123.8,70c2.6-0.3,4.5-1.8,5.8-2.8c0.2-0.2,0.5-0.2,0.7,0c1.2,1,3.1,2.5,5.8,2.9
                          c0.9,0.1,2.3,0.2,4.1,0.2c1.8,0,3.7-0.1,5.2-0.1c0.3,0,0.6,0.3,0.6,0.6l0,12.7c0,4.5-1.9,8.8-5.3,11.7l-10.7,9.4
                          c-0.2,0.1-0.4,0.1-0.6,0l-10.7-9.7c-3.3-3-5.2-7.2-5.2-11.6l0-12.6c0-0.3,0.3-0.6,0.6-0.6c0.4,0,0.9,0,1.3,0"
      />
      <path
        id="XMLID_131_"
        class="jsjoe-fill-none jsjoe-stroke-dark"
        stroke-width="1.5"
        stroke-miterlimit="10"
        d="M119.1,70.2c0.7,0,1.3,0,1.8,0"
      />
    </g>
    <path
      id="XMLID_1056_"
      class="jsjoe-fill-danger"
      d="M138.7,85c0,4.9-4,8.9-8.9,8.9c-4.9,0-8.9-4-8.9-8.9s4-8.9,8.9-8.9
                        C134.7,76.1,138.7,80.1,138.7,85z"
    />
    <polyline
      id="XMLID_3341_"
      class="jsjoe-fill-none jsjoe-stroke-dark"
      stroke-width="1.5"
      stroke-miterlimit="10"
      points="135.1,81.6 128.3,88.4 124.5,84.6    "
    />
  </g>
  <g id="XMLID_3871_">
    <path
      id="XMLID_3951_"
      class="jsjoe-fill-white"
      d="M98.8,53.7c-0.7,0-1.3,0.6-1.3,1.3v-1.4c0-0.7-0.6-1.3-1.3-1.3c-0.7,0-1.3,0.6-1.3,1.3v-1.4
                        c0-0.7-0.6-1.3-1.3-1.3c-0.7,0-1.3,0.6-1.3,1.3V48c0-0.7-0.6-1.3-1.3-1.3c-0.7,0-1.3,0.6-1.3,1.3v8.4h-1.9c-0.5,0-0.9,0.4-0.9,0.9
                        v5.9c0,0.5,0.3,0.9,0.7,1.1l1.1,0.5c0.4,0.2,0.7,0.6,0.7,1.1v2.6h8.9v-2.9c0-0.3,0.1-0.6,0.3-0.8l1.4-1.3c0.2-0.2,0.4-0.6,0.4-0.9
                        V55C100.1,54.3,99.5,53.7,98.8,53.7z"
    />
    <path
      id="XMLID_3941_"
      class="jsjoe-fill-none jsjoe-stroke-dark"
      stroke-width="1.5"
      stroke-miterlimit="10"
      d="M92.1,56.8V48c0-0.7-0.6-1.3-1.3-1.3l0,0c-0.7,0-1.3,0.6-1.3,1.3v10.8"
    />
    <path
      id="XMLID_3931_"
      class="jsjoe-fill-none jsjoe-stroke-dark"
      stroke-width="1.5"
      stroke-miterlimit="10"
      d="M94.7,54.5v-2.3c0-0.7-0.6-1.3-1.3-1.3l0,0c-0.7,0-1.3,0.6-1.3,1.3v2.3"
    />
    <path
      id="XMLID_3921_"
      class="jsjoe-fill-none jsjoe-stroke-dark"
      stroke-width="1.5"
      stroke-miterlimit="10"
      d="M97.4,56.8v-3.2c0-0.7-0.6-1.3-1.3-1.3l0,0c-0.7,0-1.3,0.6-1.3,1.3v3.2"
    />
    <path
      id="XMLID_3911_"
      class="jsjoe-fill-none jsjoe-stroke-dark"
      stroke-width="1.5"
      stroke-miterlimit="10"
      d="M97.4,56.3V55c0-0.7,0.6-1.3,1.3-1.3l0,0c0.7,0,1.3,0.6,1.3,1.3v7.6c0,0.3-0.1,0.7-0.4,0.9
                        l-1.4,1.3c-0.2,0.2-0.3,0.5-0.3,0.8v2.9"
    />
    <path
      id="XMLID_3901_"
      class="jsjoe-fill-none jsjoe-stroke-dark"
      stroke-width="1.5"
      stroke-miterlimit="10"
      d="M89.4,56.4h-1.9c-0.5,0-0.9,0.4-0.9,0.9v5.9c0,0.5,0.3,0.9,0.7,1.1l1.1,0.5
                        c0.4,0.2,0.7,0.6,0.7,1.1v2.6"
    />
    <rect
      id="XMLID_389_"
      x="87.9"
      y="66.2"
      class="jsjoe-fill-warning-lighter"
      width="11.4"
      height="38.4"
    />
    <rect
      id="XMLID_149_"
      x="92.1"
      y="66.2"
      class="jsjoe-fill-warning-lighter"
      opacity=".4"
      width="7.2"
      height="38.4"
    />
    <polyline
      id="XMLID_3881_"
      class="jsjoe-fill-none jsjoe-stroke-dark"
      stroke-width="1.5"
      stroke-miterlimit="10"
      points="87.9,104.6 87.9,66.2 99.3,66.2 99.3,104.6     "
    />
  </g>
  <g id="XMLID_90_">
    <g id="XMLID_2671_">
      <path
        id="XMLID_168_"
        class="jsjoe-fill-warning-lighter"
        opacity=".4"
        d="M59.4,83.9L49.5,82c-2.3,1-4.9,1.6-7.6,1.6c-10.3,0-18.7-8.4-18.7-18.7
                          c0-10.3,8.4-18.7,18.7-18.7c10.3,0,18.7,8.4,18.7,18.7c0,3.7-1.1,7-2.9,9.9L59.4,83.9z"
      />
      <path
        id="XMLID_160_"
        class="jsjoe-fill-none jsjoe-stroke-dark"
        stroke-width="1.5"
        stroke-miterlimit="10"
        d="M59.4,83.9L49.5,82c-2.3,1-4.9,1.6-7.6,1.6c-10.3,0-18.7-8.4-18.7-18.7
                          c0-10.3,8.4-18.7,18.7-18.7c10.3,0,18.7,8.4,18.7,18.7c0,3.7-1.1,7-2.9,9.9L59.4,83.9z"
      />
      <path
        id="XMLID_241_"
        class="jsjoe-fill-white"
        d="M41.9,79.5C49.7,79.5,56,73,56,65c0-8-6.3-14.5-14.1-14.5c-7.8,0-14.1,6.5-14.1,14.5
                          C27.7,73,34.1,79.5,41.9,79.5z"
      />
    </g>
    <path
      id="XMLID_153_"
      class="jsjoe-fill-danger"
      d="M46.2,72l-4.2-2.1c-0.1,0-0.2,0-0.3,0l-4.1,2.2c-0.2,0.1-0.4-0.1-0.4-0.3l0.7-4.6
                        c0-0.1,0-0.2-0.1-0.2l-3.4-3.2c-0.2-0.2-0.1-0.4,0.1-0.5l4.6-0.7c0.1,0,0.2-0.1,0.2-0.2l2-4.2c0.1-0.2,0.4-0.2,0.5,0l2.1,4.2
                        c0,0.1,0.1,0.1,0.2,0.1l4.6,0.6c0.2,0,0.3,0.3,0.2,0.5l-3.3,3.3c-0.1,0.1-0.1,0.2-0.1,0.2l0.8,4.6C46.7,71.9,46.4,72.1,46.2,72z"
    />
    <path
      id="XMLID_2781_"
      class="jsjoe-fill-none jsjoe-stroke-dark"
      stroke-width="1.5"
      stroke-miterlimit="10"
      d="M46.2,72l-4.2-2.1c-0.1,0-0.2,0-0.3,0l-4.1,2.2c-0.2,0.1-0.4-0.1-0.4-0.3l0.7-4.6
                        c0-0.1,0-0.2-0.1-0.2l-3.4-3.2c-0.2-0.2-0.1-0.4,0.1-0.5l4.6-0.7c0.1,0,0.2-0.1,0.2-0.2l2-4.2c0.1-0.2,0.4-0.2,0.5,0l2.1,4.2
                        c0,0.1,0.1,0.1,0.2,0.1l4.6,0.6c0.2,0,0.3,0.3,0.2,0.5l-3.3,3.3c-0.1,0.1-0.1,0.2-0.1,0.2l0.8,4.6C46.7,71.9,46.4,72.1,46.2,72z"
    />
    <line
      id="XMLID_2691_"
      class="jsjoe-fill-none jsjoe-stroke-dark"
      stroke-width="1.5"
      stroke-miterlimit="10"
      x1="41.9"
      y1="40.9"
      x2="41.9"
      y2="44.1"
    />
    <line
      id="XMLID_257_"
      class="jsjoe-fill-none jsjoe-stroke-dark"
      stroke-width="1.5"
      stroke-miterlimit="10"
      x1="41.9"
      y1="40.1"
      x2="41.9"
      y2="45"
    />
    <line
      id="XMLID_2701_"
      class="jsjoe-fill-none jsjoe-stroke-dark"
      stroke-width="1.5"
      stroke-miterlimit="10"
      x1="47.7"
      y1="43.3"
      x2="47"
      y2="45.7"
    />
    <line
      id="XMLID_2711_"
      class="jsjoe-fill-none jsjoe-stroke-dark"
      stroke-width="1.5"
      stroke-miterlimit="10"
      x1="54.3"
      y1="43.5"
      x2="51.9"
      y2="47.7"
    />
    <line
      id="XMLID_2721_"
      class="jsjoe-fill-none jsjoe-stroke-dark"
      stroke-width="1.5"
      stroke-miterlimit="10"
      x1="57.8"
      y1="49.1"
      x2="56"
      y2="50.9"
    />
    <line
      id="XMLID_2731_"
      class="jsjoe-fill-none jsjoe-stroke-dark"
      stroke-width="1.5"
      stroke-miterlimit="10"
      x1="63.4"
      y1="52.6"
      x2="59.2"
      y2="55"
    />
    <line
      id="XMLID_2741_"
      class="jsjoe-fill-none jsjoe-stroke-dark"
      stroke-width="1.5"
      stroke-miterlimit="10"
      x1="63.6"
      y1="59.5"
      x2="61.2"
      y2="59.9"
    />
    <line
      id="XMLID_2751_"
      class="jsjoe-fill-none jsjoe-stroke-dark"
      stroke-width="1.5"
      stroke-miterlimit="10"
      x1="66.8"
      y1="65"
      x2="61.9"
      y2="65"
    />
    <line
      id="XMLID_2761_"
      class="jsjoe-fill-none jsjoe-stroke-dark"
      stroke-width="1.5"
      stroke-miterlimit="10"
      x1="63.4"
      y1="70.9"
      x2="61.2"
      y2="70.2"
    />
    <line
      id="XMLID_2771_"
      class="jsjoe-fill-none jsjoe-stroke-dark"
      stroke-width="1.5"
      stroke-miterlimit="10"
      x1="63.4"
      y1="77.5"
      x2="59.2"
      y2="75.1"
    />
    <line
      id="XMLID_2851_"
      class="jsjoe-fill-none jsjoe-stroke-dark"
      stroke-width="1.5"
      stroke-miterlimit="10"
      x1="36"
      y1="86.8"
      x2="36.7"
      y2="84.4"
    />
    <line
      id="XMLID_2871_"
      class="jsjoe-fill-none jsjoe-stroke-dark"
      stroke-width="1.5"
      stroke-miterlimit="10"
      x1="29.4"
      y1="86.6"
      x2="31.8"
      y2="82.4"
    />
    <line
      id="XMLID_2881_"
      class="jsjoe-fill-none jsjoe-stroke-dark"
      stroke-width="1.5"
      stroke-miterlimit="10"
      x1="25.9"
      y1="81.1"
      x2="27.7"
      y2="79.2"
    />
    <line
      id="XMLID_2891_"
      class="jsjoe-fill-none jsjoe-stroke-dark"
      stroke-width="1.5"
      stroke-miterlimit="10"
      x1="20.3"
      y1="77.5"
      x2="24.5"
      y2="75.1"
    />
    <line
      id="XMLID_2921_"
      class="jsjoe-fill-none jsjoe-stroke-dark"
      stroke-width="1.5"
      stroke-miterlimit="10"
      x1="20.1"
      y1="70.9"
      x2="22.5"
      y2="70.2"
    />
    <line
      id="XMLID_2961_"
      class="jsjoe-fill-none jsjoe-stroke-dark"
      stroke-width="1.5"
      stroke-miterlimit="10"
      x1="16.9"
      y1="65"
      x2="21.8"
      y2="65"
    />
    <line
      id="XMLID_2971_"
      class="jsjoe-fill-none jsjoe-stroke-dark"
      stroke-width="1.5"
      stroke-miterlimit="10"
      x1="20.1"
      y1="59.2"
      x2="22.5"
      y2="59.9"
    />
    <line
      id="XMLID_2981_"
      class="jsjoe-fill-none jsjoe-stroke-dark"
      stroke-width="1.5"
      stroke-miterlimit="10"
      x1="20.3"
      y1="52.6"
      x2="24.5"
      y2="55"
    />
    <line
      id="XMLID_314_"
      class="jsjoe-fill-none jsjoe-stroke-dark"
      stroke-width="1.5"
      stroke-miterlimit="10"
      x1="25.9"
      y1="49.1"
      x2="27.7"
      y2="50.9"
    />
    <line
      id="XMLID_3181_"
      class="jsjoe-fill-none jsjoe-stroke-dark"
      stroke-width="1.5"
      stroke-miterlimit="10"
      x1="29.4"
      y1="43.5"
      x2="31.8"
      y2="47.7"
    />
    <line
      id="XMLID_3211_"
      class="jsjoe-fill-none jsjoe-stroke-dark"
      stroke-width="1.5"
      stroke-miterlimit="10"
      x1="36.4"
      y1="43.3"
      x2="36.7"
      y2="45.7"
    />
  </g>
  <g id="XMLID_293_">
    <line
      id="XMLID_338_"
      class="jsjoe-fill-none jsjoe-stroke-dark"
      stroke-width="1.5"
      stroke-miterlimit="10"
      x1="14.5"
      y1="104.6"
      x2="17.2"
      y2="104.6"
    />
    <line
      id="XMLID_341_"
      class="jsjoe-fill-none jsjoe-stroke-dark"
      stroke-width="1.5"
      stroke-miterlimit="10"
      x1="184.4"
      y1="104.6"
      x2="190.5"
      y2="104.6"
    />
    <line
      id="XMLID_343_"
      class="jsjoe-fill-none jsjoe-stroke-dark"
      stroke-width="1.5"
      stroke-miterlimit="10"
      x1="19"
      y1="104.6"
      x2="182.9"
      y2="104.6"
    />
  </g>
  <g id="XMLID_351_">
    <line
      id="XMLID_362_"
      class="jsjoe-fill-none jsjoe-stroke-dark"
      stroke-width="1.5"
      stroke-miterlimit="10"
      x1="90.7"
      y1="42.7"
      x2="90.7"
      y2="44.8"
    />
    <line
      id="XMLID_361_"
      class="jsjoe-fill-none jsjoe-stroke-dark"
      stroke-width="1.5"
      stroke-miterlimit="10"
      x1="94.4"
      y1="41.6"
      x2="92.3"
      y2="45.2"
    />
    <line
      id="XMLID_363_"
      class="jsjoe-fill-none jsjoe-stroke-dark"
      stroke-width="1.5"
      stroke-miterlimit="10"
      x1="95.3"
      y1="45.4"
      x2="93.5"
      y2="46.4"
    />
    <line
      id="XMLID_3661_"
      class="jsjoe-fill-none jsjoe-stroke-dark"
      stroke-width="1.5"
      stroke-miterlimit="10"
      x1="98.1"
      y1="48"
      x2="93.9"
      y2="48"
    />
    <line
      id="XMLID_367_"
      class="jsjoe-fill-none jsjoe-stroke-dark"
      stroke-width="1.5"
      stroke-miterlimit="10"
      x1="95.6"
      y1="50.7"
      x2="93.5"
      y2="49.6"
    />
    <line
      id="XMLID_371_"
      class="jsjoe-fill-none jsjoe-stroke-dark"
      stroke-width="1.5"
      stroke-miterlimit="10"
      x1="86.4"
      y1="50.7"
      x2="87.9"
      y2="49.6"
    />
    <line
      id="XMLID_3721_"
      class="jsjoe-fill-none jsjoe-stroke-dark"
      stroke-width="1.5"
      stroke-miterlimit="10"
      x1="83.3"
      y1="48.1"
      x2="87.5"
      y2="48"
    />
    <line
      id="XMLID_3731_"
      class="jsjoe-fill-none jsjoe-stroke-dark"
      stroke-width="1.5"
      stroke-miterlimit="10"
      x1="86.1"
      y1="45.5"
      x2="87.9"
      y2="46.4"
    />
    <line
      id="XMLID_374_"
      class="jsjoe-fill-none jsjoe-stroke-dark"
      stroke-width="1.5"
      stroke-miterlimit="10"
      x1="87"
      y1="41.6"
      x2="89.1"
      y2="45.3"
    />
  </g>
</svg>
